<?xml version="1.0" standalone="no"?><!DOCTYPE svg PUBLIC "-//W3C//DTD SVG 1.1//EN" "http://www.w3.org/Graphics/SVG/1.1/DTD/svg11.dtd"><svg t="1638258960884" class="icon" viewBox="0 0 1024 1024" version="1.1" xmlns="http://www.w3.org/2000/svg" p-id="3118" width="16" height="16" xmlns:xlink="http://www.w3.org/1999/xlink"><defs><style type="text/css"></style></defs><path d="M278.7 528.5h283.7c10.3 0 18.9-8.5 18.9-18.9 0-10.3-8.5-18.9-18.9-18.9H278.7c-10.3 0-18.9 8.5-18.9 18.9-0.2 10.3 8.3 18.9 18.9 18.9z m6.9 207.9h407.6c10.3 0 18.9-8.5 18.9-18.9 0-10.3-8.5-18.9-18.9-18.9H285.6c-10.3 0-18.9 8.5-18.9 18.9 0 10.6 8.4 18.9 18.9 18.9z m0 0" p-id="3119"></path><path d="M132.5 187.8v649.8c0 41.8 34 75.8 75.8 75.8h605.5c41.8 0 75.8-33.9 75.8-75.8V187.8c0-41.8-34-75.8-75.8-75.8H208.3c-41.8 0.1-75.8 34-75.8 75.8z m-37.7 0c0-62.7 50.8-113.5 113.5-113.5h605.5c62.7 0 113.5 51 113.5 113.5v649.8c0 62.7-50.8 113.5-113.5 113.5H208.3c-62.7 0-113.5-51-113.5-113.5V187.8z m0 0" p-id="3120"></path><path d="M251 271.2h56.7v58.5H251v-58.5z m190.7 0h56.7v58.5h-56.7v-58.5z m190.9 0h56.7v58.5h-56.7v-58.5z m0 0" p-id="3121"></path></svg>